<svg id="Capa_1" data-name="Capa 1" xmlns="http://www.w3.org/2000/svg" viewBox="0 0 288.1 161.56"><defs><style>.cls-1{fill:#fcfcfc;}</style></defs><title>logo-white</title><path class="cls-1" d="M233.62,27.33l-21.43-20A26.27,26.27,0,0,0,194.37.44H92.27A26.34,26.34,0,0,0,74.45,7.3L53,27.33H-.1V134.91H28.71c7.92,0,14.32-6,14.36-13.34h4.1l38.08,32.14c13.91,10.56,33.22,10.81,47.54,1.6a28.94,28.94,0,0,0,40.47-3.41c9.94,3.66,21.69,1.1,28.81-7.07l11.79-13.58a22.52,22.52,0,0,0,4.91-9.68h26.06c0,7.36,6.48,13.34,14.36,13.34H288V27.33ZM21.51,121.44a6.75,6.75,0,1,1,0-13.46,6.75,6.75,0,1,1,0,13.46Zm175.56-2.9-11.75,13.55a3.81,3.81,0,0,1-5.09.5l-10.76-8.16L156,139.79a6.32,6.32,0,0,1-8.1,1L131.3,127.54l-7,8.08c-6.26,7.2-17.65,8.29-24.89,2.78l-43.8-37H43.12V47.48H62L89.75,21.56l2.57-1h25.52L100.42,35.53c-13.23,11.32-14,30.42-2,42.62C105.1,85,126,95.48,144.13,80l3.69-3.15,48.71,36.94a3.28,3.28,0,0,1,.54,4.75Zm47.72-17.17H213.63a24.11,24.11,0,0,0-3.46-3.23L163.94,63.05l5.62-4.8a6.41,6.41,0,0,0,.45-9.51l-4.9-4.92a7.61,7.61,0,0,0-10.18-.42L130.09,64.69c-4.28,3.66-11.57,4-15.58,0a9.53,9.53,0,0,1,.54-14.26l29.53-25.29a18.62,18.62,0,0,1,12.15-4.42l37.68-.08a3.49,3.49,0,0,1,2.48,1l27.77,25.91h20.13Zm21.6,20.07a6.75,6.75,0,1,1,7.21-6.73A7,7,0,0,1,266.39,121.44Z" transform="translate(0.1 -0.44)"/></svg>